<?xml version="1.0" encoding="iso-8859-1"?>
<!-- Generator: Adobe Illustrator 19.0.0, SVG Export Plug-In . SVG Version: 6.00 Build 0)  -->
<svg version="1.1" id="Layer_1" xmlns="http://www.w3.org/2000/svg" xmlns:xlink="http://www.w3.org/1999/xlink" x="0px" y="0px"
	 viewBox="0 0 512 512" style="enable-background:new 0 0 512 512;" xml:space="preserve">
<path style="fill:#FFC36E;" d="M123.586,44.138v423.724C123.586,492.239,182.87,512,256,512s132.414-19.761,132.414-44.138V44.138
	H123.586z"/>
<ellipse style="fill:#FFD782;" cx="256" cy="44.138" rx="132.414" ry="44.138"/>
<ellipse style="fill:#FFC36E;" cx="256" cy="44.138" rx="105.931" ry="30.897"/>
<ellipse style="fill:#FFE3A8;" cx="256" cy="44.138" rx="83.862" ry="22.069"/>
<g>
	<path style="fill:#F2B423;" d="M256,128c51.654,0,105.463-10.187,132.414-29.407V70.621c0,16.586-50.37,39.724-132.414,39.724
		S123.586,87.207,123.586,70.621v27.972C150.537,117.813,204.346,128,256,128z"/>
	<path style="fill:#F2B423;" d="M256,167.724c51.654,0,105.463-10.187,132.414-29.407v-27.972c0,16.586-50.37,39.724-132.414,39.724
		s-132.414-23.138-132.414-39.724v27.972C150.537,157.537,204.346,167.724,256,167.724z"/>
	<path style="fill:#F2B423;" d="M256,207.448c51.654,0,105.463-10.187,132.414-29.407v-27.972c0,16.586-50.37,39.724-132.414,39.724
		s-132.414-23.138-132.414-39.724v27.972C150.537,197.261,204.346,207.448,256,207.448z"/>
	<path style="fill:#F2B423;" d="M256,247.172c51.654,0,105.463-10.187,132.414-29.407v-27.972c0,16.586-50.37,39.724-132.414,39.724
		s-132.414-23.138-132.414-39.724v27.972C150.537,236.985,204.346,247.172,256,247.172z"/>
	<path style="fill:#F2B423;" d="M256,286.897c51.654,0,105.463-10.187,132.414-29.407v-27.972c0,16.586-50.37,39.724-132.414,39.724
		s-132.414-23.138-132.414-39.724v27.972C150.537,276.71,204.346,286.897,256,286.897z"/>
	<path style="fill:#F2B423;" d="M256,326.621c51.654,0,105.463-10.187,132.414-29.407v-27.972c0,16.586-50.37,39.724-132.414,39.724
		s-132.414-23.138-132.414-39.724v27.972C150.537,316.434,204.346,326.621,256,326.621z"/>
	<path style="fill:#F2B423;" d="M256,366.345c51.654,0,105.463-10.187,132.414-29.407v-27.972c0,16.586-50.37,39.724-132.414,39.724
		s-132.414-23.138-132.414-39.724v27.972C150.537,356.158,204.346,366.345,256,366.345z"/>
	<path style="fill:#F2B423;" d="M256,406.069c51.654,0,105.463-10.187,132.414-29.407V348.69c0,16.586-50.37,39.724-132.414,39.724
		s-132.414-23.138-132.414-39.724v27.972C150.537,395.882,204.346,406.069,256,406.069z"/>
	<path style="fill:#F2B423;" d="M256,445.793c51.654,0,105.463-10.187,132.414-29.407v-27.972c0,16.586-50.37,39.724-132.414,39.724
		S123.586,405,123.586,388.414v27.972C150.537,435.605,204.346,445.793,256,445.793z"/>
	<path style="fill:#F2B423;" d="M256,485.517c51.654,0,105.463-10.187,132.414-29.407v-27.972c0,16.586-50.37,39.724-132.414,39.724
		s-132.414-23.138-132.414-39.724v27.972C150.537,475.329,204.346,485.517,256,485.517z"/>
</g>
<g>
	<path style="fill:#FFFFFF;" d="M369.898,58.048c-15.236-3.474-27.231-15.468-30.705-30.706c-0.262-1.148-1.781-1.148-2.042,0
		c-3.474,15.236-15.468,27.231-30.705,30.706c-1.148,0.262-1.148,1.781,0,2.042c15.236,3.474,27.231,15.467,30.705,30.705
		c0.262,1.148,1.781,1.148,2.042,0c3.474-15.238,15.468-27.231,30.705-30.705C371.046,59.829,371.046,58.31,369.898,58.048z"/>
	<path style="fill:#FFFFFF;" d="M308.267,90.3c-9.274-2.402-16.577-9.705-18.979-18.979c-0.242-0.931-1.447-0.931-1.688,0
		c-2.402,9.274-9.705,16.577-18.979,18.979c-0.931,0.242-0.931,1.447,0,1.688c9.274,2.402,16.577,9.704,18.979,18.979
		c0.242,0.931,1.447,0.931,1.688,0c2.402-9.276,9.705-16.577,18.979-18.979C309.198,91.746,309.198,90.54,308.267,90.3z"/>
</g>
<ellipse style="fill:#FFC36E;" cx="256" cy="44.138" rx="35.31" ry="8.828"/>
<g>
</g>
<g>
</g>
<g>
</g>
<g>
</g>
<g>
</g>
<g>
</g>
<g>
</g>
<g>
</g>
<g>
</g>
<g>
</g>
<g>
</g>
<g>
</g>
<g>
</g>
<g>
</g>
<g>
</g>
</svg>
