<?xml version="1.0" encoding="iso-8859-1"?>
<!-- Generator: Adobe Illustrator 19.0.0, SVG Export Plug-In . SVG Version: 6.00 Build 0)  -->
<svg version="1.1" id="Layer_1" xmlns="http://www.w3.org/2000/svg" xmlns:xlink="http://www.w3.org/1999/xlink" x="0px" y="0px"
	 viewBox="0 0 512.002 512.002" style="enable-background:new 0 0 512.002 512.002;" xml:space="preserve">
<g>
	<g>
		<g>
			<path style="fill:#F9BA48;" d="M375.468,256.002c65.877,0,119.467-53.589,119.467-119.467S441.345,17.069,375.468,17.069
				S256.001,70.658,256.001,136.535S309.59,256.002,375.468,256.002z M375.468,34.135c56.465,0,102.4,45.935,102.4,102.4
				c0,56.465-45.935,102.4-102.4,102.4s-102.4-45.935-102.4-102.4C273.068,80.07,319.003,34.135,375.468,34.135z"/>
			<path style="fill:#F9BA48;" d="M375.468,179.202c-9.412,0-17.067-7.654-17.067-17.067c0-4.71-3.823-8.533-8.533-8.533c-4.71,0-8.533,3.823-8.533,8.533
				c0,15.855,10.923,29.107,25.6,32.922v1.212c0,4.71,3.823,8.533,8.533,8.533s8.533-3.823,8.533-8.533v-1.212
				c14.677-3.814,25.6-17.067,25.6-32.922c0-18.825-15.309-34.133-34.133-34.133c-9.412,0-17.067-7.654-17.067-17.067
				c0-9.412,7.654-17.067,17.067-17.067s17.067,7.654,17.067,17.067c0,4.71,3.823,8.533,8.533,8.533s8.533-3.823,8.533-8.533
				c0-15.855-10.923-29.107-25.6-32.922v-1.212c0-4.71-3.823-8.533-8.533-8.533s-8.533,3.823-8.533,8.533v1.212
				c-14.677,3.814-25.6,17.067-25.6,32.922c0,18.825,15.309,34.133,34.133,34.133c9.412,0,17.067,7.654,17.067,17.067
				C392.534,171.548,384.88,179.202,375.468,179.202z"/>
			<path style="fill:#8c887e;" d="M59.734,256.002c4.71,0,8.533-3.823,8.533-8.533v-42.667c0-75.281,61.252-136.533,136.533-136.533h30.601l-36.634,36.634
				c-3.336,3.337-3.336,8.73,0,12.066c1.664,1.664,3.849,2.5,6.033,2.5c2.185,0,4.369-0.836,6.033-2.5l51.2-51.191
				c0.785-0.794,1.408-1.741,1.843-2.782c0.862-2.082,0.862-4.437,0-6.519c-0.435-1.041-1.058-1.988-1.843-2.782l-51.2-51.191
				c-3.337-3.336-8.73-3.336-12.066,0c-3.336,3.337-3.336,8.73,0,12.066l36.634,36.634h-30.601c-84.693,0-153.6,68.907-153.6,153.6
				v42.667C51.201,252.179,55.024,256.002,59.734,256.002z"/>
			<path style="fill:#F9BA48;" d="M145.051,332.802c4.89,0,9.677,0.819,14.234,2.432c4.454,1.579,9.318-0.751,10.888-5.188
				c1.579-4.446-0.742-9.318-5.188-10.897c-6.391-2.261-13.099-3.413-19.934-3.413c-23.774,0-44.279,13.986-53.888,34.133h-5.828
				c-4.71,0-8.533,3.823-8.533,8.533s3.823,8.533,8.533,8.533h0.657c-0.401,2.799-0.674,5.632-0.674,8.533
				c0,2.901,0.273,5.734,0.674,8.533h-0.657c-4.71,0-8.533,3.823-8.533,8.533c0,4.71,3.823,8.533,8.533,8.533h5.828
				c9.609,20.147,30.114,34.133,53.888,34.133c6.724,0,13.329-1.109,19.627-3.302c4.454-1.545,6.81-6.417,5.257-10.863
				c-1.545-4.446-6.391-6.818-10.863-5.257c-4.489,1.562-9.208,2.355-14.02,2.355c-13.884,0-26.12-6.767-33.92-17.067h25.404
				c4.71,0,8.533-3.823,8.533-8.533c0-4.71-3.823-8.533-8.533-8.533h-33.289c-0.563-2.756-0.862-5.615-0.862-8.533
				s0.299-5.777,0.862-8.533h41.822c4.71,0,8.533-3.823,8.533-8.533s-3.823-8.533-8.533-8.533h-33.937
				C118.93,339.569,131.167,332.802,145.051,332.802z"/>
			<path style="fill:#8c887e;" d="M452.268,256.002c-4.71,0-8.533,3.823-8.533,8.533v42.667c0,75.281-61.252,136.533-136.533,136.533h-30.601
				l36.634-36.634c3.336-3.336,3.336-8.73,0-12.066c-3.337-3.337-8.73-3.337-12.066,0l-51.2,51.191
				c-0.785,0.794-1.408,1.741-1.843,2.782c-0.862,2.082-0.862,4.437,0,6.519c0.435,1.041,1.058,1.988,1.843,2.782l51.2,51.191
				c1.664,1.664,3.849,2.5,6.033,2.5c2.185,0,4.369-0.836,6.033-2.5c3.336-3.336,3.336-8.73,0-12.066l-36.634-36.634h30.601
				c84.693,0,153.6-68.907,153.6-153.6v-42.667C460.801,259.825,456.978,256.002,452.268,256.002z"/>
			<path style="fill:#F9BA48;" d="M136.534,256.002c-65.877,0-119.467,53.589-119.467,119.467s53.589,119.467,119.467,119.467
				s119.467-53.589,119.467-119.467S202.412,256.002,136.534,256.002z M136.534,477.869c-56.465,0-102.4-45.935-102.4-102.4
				s45.935-102.4,102.4-102.4s102.4,45.935,102.4,102.4S192.999,477.869,136.534,477.869z"/>
		</g>
	</g>
</g>
<g>
</g>
<g>
</g>
<g>
</g>
<g>
</g>
<g>
</g>
<g>
</g>
<g>
</g>
<g>
</g>
<g>
</g>
<g>
</g>
<g>
</g>
<g>
</g>
<g>
</g>
<g>
</g>
<g>
</g>
</svg>
